<svg width="270" height="183" viewBox="0 0 411 286" fill="none" xmlns="http://www.w3.org/2000/svg">
<g filter="url(#filter0_d_167_596)">
<path fill-rule="evenodd" clip-rule="evenodd" d="M32 0C23.7157 0 17 6.71572 17 15V96.2H4.41211V112.6H9.41211V157.6H4.41211V174H17V263C17 271.284 23.7157 278 32 278H379C387.284 278 394 271.284 394 263V175.131C395.539 174.965 397.063 174.721 398.571 174.4C401.771 173.8 404.304 173.133 406.171 172.4V156.7C403.171 157.3 400.404 157.6 397.871 157.6C396.254 157.6 394.964 157.25 394 156.551V134.8H405.571V118.4H394V15C394 6.71573 387.284 0 379 0H32ZM394 118.4H392.071V106.6H370.871V111.1C370.871 113.367 370.237 115.167 368.971 116.5C367.704 117.767 365.804 118.4 363.271 118.4V134.8H367.671V152.9C367.671 161.033 369.437 166.833 372.971 170.3C376.571 173.7 381.904 175.4 388.971 175.4C390.665 175.4 392.341 175.31 394 175.131V156.551C393.811 156.414 393.635 156.264 393.471 156.1C392.537 155.033 392.071 153.4 392.071 151.2V134.8H394V118.4ZM17 174H47.0121V157.6H37.4121V143.2H48.3121C56.9121 143.2 63.4788 141.367 68.0121 137.7C72.5454 133.967 74.8121 127.967 74.8121 119.7C74.8121 111.433 72.5454 105.467 68.0121 101.8C63.4788 98.0667 56.9121 96.2 48.3121 96.2H17V174ZM46.6121 122.6C46.6121 126.867 44.6788 129 40.8121 129H37.4121V112.6H40.8121C42.7454 112.6 44.1788 113.133 45.1121 114.2C46.1121 115.2 46.6121 116.8 46.6121 119V122.6ZM124.54 117.4C123.34 117.133 122.074 117 120.74 117C117.34 117 114.44 117.767 112.04 119.3C109.64 120.767 107.507 122.9 105.64 125.7V118.4H78.2402V134.8H82.6402V157.6H78.2402V174H114.64V157.6H105.64V148.9C105.64 144.567 106.774 141.3 109.04 139.1C111.307 136.9 114.54 135.8 118.74 135.8C121.874 135.8 124.807 136.367 127.54 137.5V118.4C126.74 118 125.74 117.667 124.54 117.4ZM138.375 168C143.708 172.933 151.108 175.4 160.575 175.4C170.041 175.4 177.441 172.933 182.775 168C188.108 163 190.775 155.733 190.775 146.2C190.775 136.8 188.141 129.6 182.875 124.6C177.608 119.533 170.175 117 160.575 117C151.108 117 143.708 119.5 138.375 124.5C133.041 129.433 130.375 136.667 130.375 146.2C130.375 155.733 133.041 163 138.375 168ZM164.875 156.1C163.941 157.1 162.508 157.6 160.575 157.6C158.641 157.6 157.175 157.1 156.175 156.1C155.241 155.033 154.775 153.4 154.775 151.2V141.2C154.775 139 155.241 137.4 156.175 136.4C157.175 135.333 158.641 134.8 160.575 134.8C162.508 134.8 163.941 135.333 164.875 136.4C165.875 137.4 166.375 139 166.375 141.2V151.2C166.375 153.4 165.875 155.033 164.875 156.1ZM199.158 157.6H194.158V174H236.758V157.6H227.158V143.2H238.058C246.658 143.2 253.225 141.367 257.758 137.7C262.292 133.967 264.558 127.967 264.558 119.7C264.558 111.433 262.292 105.467 257.758 101.8C253.225 98.0667 246.658 96.2 238.058 96.2H194.158V112.6H199.158V157.6ZM236.358 122.6C236.358 126.867 234.425 129 230.558 129H227.158V112.6H230.558C232.492 112.6 233.925 113.133 234.858 114.2C235.858 115.2 236.358 116.8 236.358 119V122.6ZM267.786 157.6V174.1H299.586V157.6H295.186V96.2H267.786V112.6H272.186V157.6H267.786ZM361.047 174V157.6H356.647V139.1C356.647 131.567 354.514 126 350.247 122.4C345.981 118.8 338.881 117 328.947 117C325.014 117 320.981 117.267 316.847 117.8C312.714 118.333 308.881 119.033 305.347 119.9V138.3C308.214 137.233 311.347 136.4 314.747 135.8C318.214 135.133 321.447 134.8 324.447 134.8C328.114 134.8 330.714 135.233 332.247 136.1C333.781 136.9 334.647 138.433 334.847 140.7C313.447 141.033 302.747 147.5 302.747 160.1C302.747 164.967 304.181 168.733 307.047 171.4C309.914 174.067 313.847 175.4 318.847 175.4C322.647 175.4 325.847 174.567 328.447 172.9C331.114 171.233 333.181 169.333 334.647 167.2V174H361.047ZM327.647 151.8C329.314 151 331.647 150.6 334.647 150.6V151.2C334.647 153.867 334.181 155.933 333.247 157.4C332.314 158.867 330.981 159.6 329.247 159.6C327.981 159.6 326.981 159.267 326.247 158.6C325.581 157.867 325.247 156.933 325.247 155.8C325.247 153.933 326.047 152.6 327.647 151.8Z" fill="#0007B6"/>
</g>
<path d="M73.8605 242V228H75.7605V242H73.8605ZM82.0684 242V229.68H77.7684V228H88.2684V229.68H83.9684V242H82.0684ZM99.7429 242.24C98.7696 242.24 97.8829 242.113 97.0829 241.86C96.2829 241.593 95.6096 241.247 95.0629 240.82L96.0229 239.22C96.5029 239.62 97.0429 239.947 97.6429 240.2C98.2429 240.453 98.9429 240.58 99.7429 240.58C100.703 240.58 101.463 240.38 102.023 239.98C102.583 239.58 102.863 239.04 102.863 238.36C102.863 237.973 102.783 237.633 102.623 237.34C102.463 237.033 102.15 236.74 101.683 236.46C101.23 236.167 100.556 235.853 99.6629 235.52C98.7029 235.147 97.9362 234.773 97.3629 234.4C96.7896 234.013 96.3762 233.58 96.1229 233.1C95.8829 232.607 95.7629 232.027 95.7629 231.36C95.7629 230.693 95.9429 230.093 96.3029 229.56C96.6762 229.013 97.2162 228.58 97.9229 228.26C98.6429 227.927 99.5096 227.76 100.523 227.76C101.35 227.76 102.09 227.847 102.743 228.02C103.41 228.18 104.056 228.413 104.683 228.72L103.983 230.34C103.53 230.073 102.996 229.853 102.383 229.68C101.783 229.493 101.15 229.4 100.483 229.4C99.6029 229.4 98.9096 229.573 98.4029 229.92C97.8962 230.267 97.6429 230.713 97.6429 231.26C97.6429 231.607 97.7162 231.913 97.8629 232.18C98.0096 232.447 98.2962 232.707 98.7229 232.96C99.1629 233.213 99.8162 233.5 100.683 233.82C101.723 234.207 102.543 234.613 103.143 235.04C103.756 235.467 104.19 235.933 104.443 236.44C104.696 236.933 104.823 237.5 104.823 238.14C104.823 239.007 104.603 239.747 104.163 240.36C103.736 240.973 103.136 241.44 102.363 241.76C101.603 242.08 100.73 242.24 99.7429 242.24ZM107.43 242V231.6H109.23V242H107.43ZM108.33 229.82C107.983 229.82 107.683 229.693 107.43 229.44C107.19 229.187 107.07 228.893 107.07 228.56C107.07 228.173 107.183 227.867 107.41 227.64C107.637 227.413 107.943 227.3 108.33 227.3C108.677 227.3 108.97 227.427 109.21 227.68C109.463 227.92 109.59 228.213 109.59 228.56C109.59 228.933 109.477 229.24 109.25 229.48C109.023 229.707 108.717 229.82 108.33 229.82ZM116.37 242.24C115.517 242.24 114.737 242.02 114.03 241.58C113.323 241.14 112.763 240.52 112.35 239.72C111.937 238.907 111.73 237.953 111.73 236.86C111.73 235.807 111.937 234.867 112.35 234.04C112.777 233.213 113.337 232.56 114.03 232.08C114.737 231.6 115.51 231.36 116.35 231.36C117.043 231.36 117.637 231.5 118.13 231.78C118.637 232.06 119.03 232.347 119.31 232.64V227.2H121.11V239.48C121.11 239.987 121.23 240.32 121.47 240.48C121.723 240.627 121.997 240.7 122.29 240.7L121.91 242.1C120.643 242.1 119.87 241.593 119.59 240.58C119.297 240.993 118.883 241.373 118.35 241.72C117.83 242.067 117.17 242.24 116.37 242.24ZM116.77 240.64C117.263 240.64 117.73 240.527 118.17 240.3C118.623 240.06 119.003 239.753 119.31 239.38V234.22C119.057 233.9 118.703 233.607 118.25 233.34C117.797 233.06 117.297 232.92 116.75 232.92C116.11 232.92 115.55 233.093 115.07 233.44C114.59 233.787 114.217 234.253 113.95 234.84C113.697 235.413 113.57 236.067 113.57 236.8C113.57 237.533 113.71 238.193 113.99 238.78C114.27 239.353 114.65 239.807 115.13 240.14C115.623 240.473 116.17 240.64 116.77 240.64ZM128.66 242.24C127.167 242.24 125.98 241.767 125.1 240.82C124.234 239.86 123.8 238.52 123.8 236.8C123.8 235.76 123.994 234.833 124.38 234.02C124.78 233.193 125.334 232.547 126.04 232.08C126.747 231.6 127.567 231.36 128.5 231.36C129.5 231.36 130.327 231.58 130.98 232.02C131.647 232.447 132.147 233.027 132.48 233.76C132.814 234.493 132.98 235.3 132.98 236.18C132.98 236.647 132.96 237.1 132.92 237.54H125.64C125.76 238.513 126.1 239.273 126.66 239.82C127.22 240.367 127.96 240.64 128.88 240.64C129.48 240.64 130.02 240.58 130.5 240.46C130.98 240.327 131.44 240.16 131.88 239.96L132.3 241.5C131.82 241.713 131.28 241.887 130.68 242.02C130.08 242.167 129.407 242.24 128.66 242.24ZM125.62 236.08H131.32C131.32 235.067 131.067 234.287 130.56 233.74C130.054 233.193 129.354 232.92 128.46 232.92C127.687 232.92 127.047 233.193 126.54 233.74C126.034 234.273 125.727 235.053 125.62 236.08ZM140.775 239.86H157.155V241.24H140.775V239.86ZM142.195 227.28H155.615V228.64H142.195V227.28ZM142.235 234.92H155.595V236.28H142.235V234.92ZM145.015 228.54H146.675V235.06H145.015V228.54ZM151.175 228.54H152.815V235.06H151.175V228.54ZM159.174 239.96H175.554V241.34H159.174V239.96ZM166.494 236.08H168.154V240.54H166.494V236.08ZM161.154 226.82H173.534V232.3H162.854V235.92H161.214V230.96H171.894V228.16H161.154V226.82ZM161.214 235.22H173.954V236.58H161.214V235.22ZM185.032 230.14H188.332V231.5H185.032V230.14ZM187.732 225.86H189.292V236.38H187.732V225.86ZM181.312 227.86H182.612V229.34C182.612 232.14 181.152 234.92 178.492 236.1L177.632 234.82C179.952 233.82 181.312 231.5 181.312 229.34V227.86ZM181.592 227.86H182.892V229.32C182.892 231.32 184.192 233.46 186.432 234.4L185.592 235.68C182.972 234.58 181.592 231.94 181.592 229.32V227.86ZM177.972 226.94H186.012V228.3H177.972V226.94ZM191.212 225.48H192.792V236.52H191.212V225.48ZM180.672 237.32H192.792V243.56H191.152V238.68H180.672V237.32ZM198.071 235.22H210.491V236.56H198.071V235.22ZM195.971 239.86H212.351V241.24H195.971V239.86ZM198.071 227.02H210.291V228.38H199.751V235.64H198.071V227.02ZM199.211 231.06H209.911V232.38H199.211V231.06ZM221.165 242V228.04C221.712 227.973 222.312 227.927 222.965 227.9C223.632 227.86 224.319 227.84 225.025 227.84C226.185 227.84 227.172 228.027 227.985 228.4C228.799 228.76 229.419 229.26 229.845 229.9C230.272 230.54 230.485 231.273 230.485 232.1C230.485 233.1 230.239 233.947 229.745 234.64C229.252 235.333 228.565 235.867 227.685 236.24C226.805 236.6 225.785 236.78 224.625 236.78C224.065 236.78 223.545 236.76 223.065 236.72V242H221.165ZM224.865 235.2C226.052 235.2 226.972 234.933 227.625 234.4C228.279 233.867 228.605 233.153 228.605 232.26C228.605 231.393 228.292 230.707 227.665 230.2C227.039 229.693 226.145 229.44 224.985 229.44C224.625 229.44 224.285 229.447 223.965 229.46C223.645 229.473 223.345 229.493 223.065 229.52V235.1C223.279 235.127 223.539 235.153 223.845 235.18C224.152 235.193 224.492 235.2 224.865 235.2ZM232.586 242V231.6H234.326V233.86C234.5 233.42 234.733 233.013 235.026 232.64C235.32 232.253 235.686 231.947 236.126 231.72C236.566 231.48 237.08 231.36 237.666 231.36C237.866 231.36 238.066 231.373 238.266 231.4C238.466 231.413 238.633 231.44 238.766 231.48L238.226 233.34C237.973 233.233 237.673 233.18 237.326 233.18C236.833 233.18 236.36 233.32 235.906 233.6C235.466 233.88 235.1 234.313 234.806 234.9C234.526 235.487 234.386 236.233 234.386 237.14V242H232.586ZM244.349 242.24C243.362 242.24 242.476 242.013 241.689 241.56C240.902 241.093 240.282 240.453 239.829 239.64C239.389 238.813 239.169 237.867 239.169 236.8C239.169 235.68 239.396 234.713 239.849 233.9C240.302 233.087 240.922 232.46 241.709 232.02C242.496 231.58 243.376 231.36 244.349 231.36C245.322 231.36 246.196 231.58 246.969 232.02C247.756 232.46 248.376 233.087 248.829 233.9C249.296 234.7 249.529 235.653 249.529 236.76C249.529 237.867 249.302 238.833 248.849 239.66C248.396 240.473 247.776 241.107 246.989 241.56C246.216 242.013 245.336 242.24 244.349 242.24ZM244.349 240.64C245.402 240.64 246.222 240.287 246.809 239.58C247.396 238.86 247.689 237.933 247.689 236.8C247.689 236.107 247.542 235.473 247.249 234.9C246.956 234.313 246.556 233.847 246.049 233.5C245.556 233.14 244.989 232.96 244.349 232.96C243.296 232.96 242.476 233.307 241.889 234C241.302 234.693 241.009 235.613 241.009 236.76C241.009 237.453 241.156 238.1 241.449 238.7C241.742 239.287 242.136 239.76 242.629 240.12C243.136 240.467 243.709 240.64 244.349 240.64ZM252.122 242V228.04C252.669 227.973 253.269 227.927 253.922 227.9C254.589 227.86 255.276 227.84 255.982 227.84C257.142 227.84 258.129 228.027 258.942 228.4C259.756 228.76 260.376 229.26 260.802 229.9C261.229 230.54 261.442 231.273 261.442 232.1C261.442 233.1 261.196 233.947 260.702 234.64C260.209 235.333 259.522 235.867 258.642 236.24C257.762 236.6 256.742 236.78 255.582 236.78C255.022 236.78 254.502 236.76 254.022 236.72V242H252.122ZM255.822 235.2C257.009 235.2 257.929 234.933 258.582 234.4C259.236 233.867 259.562 233.153 259.562 232.26C259.562 231.393 259.249 230.707 258.622 230.2C257.996 229.693 257.102 229.44 255.942 229.44C255.582 229.44 255.242 229.447 254.922 229.46C254.602 229.473 254.302 229.493 254.022 229.52V235.1C254.236 235.127 254.496 235.153 254.802 235.18C255.109 235.193 255.449 235.2 255.822 235.2ZM266.703 242.24C266.09 242.24 265.537 242.127 265.043 241.9C264.55 241.66 264.157 241.28 263.863 240.76C263.583 240.24 263.443 239.567 263.443 238.74V227.2H265.243V238.56C265.243 239.28 265.39 239.813 265.683 240.16C265.99 240.507 266.41 240.68 266.943 240.68C267.197 240.68 267.443 240.653 267.683 240.6C267.937 240.533 268.15 240.46 268.323 240.38L268.763 241.84C268.523 241.947 268.223 242.04 267.863 242.12C267.517 242.2 267.13 242.24 266.703 242.24ZM274.144 242.24C273.278 242.24 272.491 242.02 271.784 241.58C271.078 241.14 270.511 240.52 270.084 239.72C269.671 238.907 269.464 237.953 269.464 236.86C269.464 235.82 269.671 234.887 270.084 234.06C270.511 233.233 271.091 232.58 271.824 232.1C272.571 231.607 273.424 231.36 274.384 231.36C274.984 231.36 275.524 231.467 276.004 231.68C276.498 231.88 276.924 232.133 277.284 232.44V231.6H278.924V239.48C278.924 239.987 279.044 240.32 279.284 240.48C279.538 240.627 279.811 240.7 280.104 240.7L279.724 242.1C278.444 242.1 277.671 241.58 277.404 240.54C277.098 240.967 276.678 241.36 276.144 241.72C275.624 242.067 274.958 242.24 274.144 242.24ZM274.544 240.64C275.051 240.64 275.531 240.52 275.984 240.28C276.438 240.027 276.818 239.713 277.124 239.34V233.76C276.764 233.507 276.364 233.307 275.924 233.16C275.498 233 275.044 232.92 274.564 232.92C273.924 232.92 273.358 233.087 272.864 233.42C272.384 233.74 272.004 234.193 271.724 234.78C271.444 235.353 271.304 236.027 271.304 236.8C271.304 237.547 271.444 238.213 271.724 238.8C272.004 239.373 272.391 239.827 272.884 240.16C273.378 240.48 273.931 240.64 274.544 240.64ZM286.148 242.24C285.148 242.24 284.355 241.913 283.768 241.26C283.195 240.593 282.908 239.647 282.908 238.42V233.54H281.108V231.98H282.948L283.328 228.7H284.708V231.98H287.588V233.54H284.708V238.56C284.708 239.333 284.868 239.873 285.188 240.18C285.522 240.487 285.915 240.64 286.368 240.64C286.702 240.64 287.015 240.587 287.308 240.48C287.615 240.373 287.895 240.247 288.148 240.1L288.648 241.54C288.382 241.7 288.022 241.853 287.568 242C287.115 242.16 286.642 242.24 286.148 242.24ZM303.174 232.5H306.594V233.88H303.174V232.5ZM309.614 225.48H311.214V243.56H309.614V225.48ZM306.034 225.86H307.614V242.66H306.034V225.86ZM299.914 226.98C302.254 226.98 303.774 229.4 303.774 233.28C303.774 237.16 302.254 239.58 299.914 239.58C297.574 239.58 296.074 237.16 296.074 233.28C296.074 229.4 297.574 226.98 299.914 226.98ZM299.914 228.52C298.494 228.52 297.594 230.36 297.594 233.28C297.594 236.2 298.494 238.04 299.914 238.04C301.354 238.04 302.254 236.2 302.254 233.28C302.254 230.36 301.354 228.52 299.914 228.52ZM323.272 231.6H328.312V232.96H323.272V231.6ZM318.912 227.04H320.272V230.26C320.272 234.32 318.132 238.2 315.272 239.74L314.212 238.42C316.872 237.1 318.912 233.62 318.912 230.26V227.04ZM319.232 227.04H320.572V230.26C320.572 233.56 322.612 236.84 325.232 238.08L324.252 239.42C321.332 237.94 319.232 234.22 319.232 230.26V227.04ZM327.492 225.46H329.132V243.58H327.492V225.46ZM334.03 237.86L333.77 232.4V227.42H335.77V232.4L335.51 237.86H334.03ZM334.79 242.24C334.43 242.24 334.117 242.107 333.85 241.84C333.584 241.573 333.45 241.26 333.45 240.9C333.45 240.487 333.57 240.16 333.81 239.92C334.05 239.68 334.377 239.56 334.79 239.56C335.137 239.56 335.444 239.693 335.71 239.96C335.99 240.227 336.13 240.54 336.13 240.9C336.13 241.3 336.004 241.627 335.75 241.88C335.497 242.12 335.177 242.24 334.79 242.24Z" fill="white"/>
<defs>
<filter id="filter0_d_167_596" x="0.412109" y="0" width="409.759" height="286" filterUnits="userSpaceOnUse" color-interpolation-filters="sRGB">
<feFlood flood-opacity="0" result="BackgroundImageFix"/>
<feColorMatrix in="SourceAlpha" type="matrix" values="0 0 0 0 0 0 0 0 0 0 0 0 0 0 0 0 0 0 127 0" result="hardAlpha"/>
<feOffset dy="4"/>
<feGaussianBlur stdDeviation="2"/>
<feComposite in2="hardAlpha" operator="out"/>
<feColorMatrix type="matrix" values="0 0 0 0 0 0 0 0 0 0 0 0 0 0 0 0 0 0 0.25 0"/>
<feBlend mode="normal" in2="BackgroundImageFix" result="effect1_dropShadow_167_596"/>
<feBlend mode="normal" in="SourceGraphic" in2="effect1_dropShadow_167_596" result="shape"/>
</filter>
</defs>
</svg>
