<svg width="1640" height="213" viewBox="0 0 1688 261" fill="none" xmlns="http://www.w3.org/2000/svg">
<g filter="url(#filter0_d_135_2724)">
<path fill-rule="evenodd" clip-rule="evenodd" d="M19 0C10.7157 0 4 6.71573 4 15V238C4 246.284 10.7157 253 19 253H1668.18C1676.47 253 1683.18 246.284 1683.18 238V15C1683.18 6.71573 1676.47 0 1668.18 0H19ZM619.185 152.402H614.185V168.802H656.785V152.402H647.185V138.002H658.085C666.685 138.002 673.251 136.168 677.785 132.502C682.318 128.768 684.585 122.768 684.585 114.502C684.585 106.235 682.318 100.268 677.785 96.6016C673.251 92.8683 666.685 91.0016 658.085 91.0016H614.185V107.402H619.185V152.402ZM656.385 117.402C656.385 121.668 654.451 123.802 650.585 123.802H647.185V107.402H650.585C652.518 107.402 653.951 107.935 654.885 109.002C655.885 110.002 656.385 111.602 656.385 113.802V117.402ZM734.313 112.202C733.113 111.935 731.846 111.802 730.513 111.802C727.113 111.802 724.213 112.568 721.813 114.102C719.413 115.568 717.279 117.702 715.413 120.502V113.202H688.013V129.602H692.413V152.402H688.013V168.802H724.413V152.402H715.413V143.702C715.413 139.368 716.546 136.102 718.813 133.902C721.079 131.702 724.313 130.602 728.513 130.602C731.646 130.602 734.579 131.168 737.313 132.302V113.202C736.513 112.802 735.513 112.468 734.313 112.202ZM748.147 162.802C753.481 167.735 760.881 170.202 770.347 170.202C779.814 170.202 787.214 167.735 792.547 162.802C797.881 157.802 800.547 150.535 800.547 141.002C800.547 131.602 797.914 124.402 792.647 119.402C787.381 114.335 779.947 111.802 770.347 111.802C760.881 111.802 753.481 114.302 748.147 119.302C742.814 124.235 740.147 131.468 740.147 141.002C740.147 150.535 742.814 157.802 748.147 162.802ZM774.647 150.902C773.714 151.902 772.281 152.402 770.347 152.402C768.414 152.402 766.947 151.902 765.947 150.902C765.014 149.835 764.547 148.202 764.547 146.002V136.002C764.547 133.802 765.014 132.202 765.947 131.202C766.947 130.135 768.414 129.602 770.347 129.602C772.281 129.602 773.714 130.135 774.647 131.202C775.647 132.202 776.147 133.802 776.147 136.002V146.002C776.147 148.202 775.647 149.835 774.647 150.902ZM808.931 152.402H803.931V168.802H846.531V152.402H836.931V138.002H847.831C856.431 138.002 862.997 136.168 867.531 132.502C872.064 128.768 874.331 122.768 874.331 114.502C874.331 106.235 872.064 100.268 867.531 96.6016C862.997 92.8683 856.431 91.0016 847.831 91.0016H803.931V107.402H808.931V152.402ZM846.131 117.402C846.131 121.668 844.197 123.802 840.331 123.802H836.931V107.402H840.331C842.264 107.402 843.697 107.935 844.631 109.002C845.631 110.002 846.131 111.602 846.131 113.802V117.402ZM877.559 152.402V168.902H909.359V152.402H904.959V91.0016H877.559V107.402H881.959V152.402H877.559ZM970.82 168.802V152.402H966.42V133.902C966.42 126.368 964.286 120.802 960.02 117.202C955.753 113.602 948.653 111.802 938.72 111.802C934.786 111.802 930.753 112.068 926.62 112.602C922.487 113.135 918.653 113.835 915.12 114.702V133.102C917.987 132.035 921.12 131.202 924.52 130.602C927.987 129.935 931.22 129.602 934.22 129.602C937.887 129.602 940.487 130.035 942.02 130.902C943.553 131.702 944.42 133.235 944.62 135.502C923.22 135.835 912.52 142.302 912.52 154.902C912.52 159.768 913.953 163.535 916.82 166.202C919.687 168.868 923.62 170.202 928.62 170.202C932.42 170.202 935.62 169.368 938.22 167.702C940.887 166.035 942.953 164.135 944.42 162.002V168.802H970.82ZM937.42 146.602C939.087 145.802 941.42 145.402 944.42 145.402V146.002C944.42 148.668 943.953 150.735 943.02 152.202C942.086 153.668 940.753 154.402 939.02 154.402C937.753 154.402 936.753 154.068 936.02 153.402C935.353 152.668 935.02 151.735 935.02 150.602C935.02 148.735 935.82 147.402 937.42 146.602ZM982.743 165.102C986.343 168.502 991.677 170.202 998.743 170.202C1002.01 170.202 1005.21 169.868 1008.34 169.202C1011.54 168.602 1014.08 167.935 1015.94 167.202V151.502C1012.94 152.102 1010.18 152.402 1007.64 152.402C1005.71 152.402 1004.24 151.902 1003.24 150.902C1002.31 149.835 1001.84 148.202 1001.84 146.002V129.602H1015.34V113.202H1001.84V101.402H980.643V105.902C980.643 108.168 980.01 109.968 978.743 111.302C977.477 112.568 975.577 113.202 973.043 113.202V129.602H977.443V147.702C977.443 155.835 979.21 161.635 982.743 165.102Z" fill="#0007B6"/>
</g>
<defs>
<filter id="filter0_d_135_2724" x="0" y="0" width="1687.18" height="261" filterUnits="userSpaceOnUse" color-interpolation-filters="sRGB">
<feFlood flood-opacity="0" result="BackgroundImageFix"/>
<feColorMatrix in="SourceAlpha" type="matrix" values="0 0 0 0 0 0 0 0 0 0 0 0 0 0 0 0 0 0 127 0" result="hardAlpha"/>
<feOffset dy="4"/>
<feGaussianBlur stdDeviation="2"/>
<feComposite in2="hardAlpha" operator="out"/>
<feColorMatrix type="matrix" values="0 0 0 0 0 0 0 0 0 0 0 0 0 0 0 0 0 0 0.25 0"/>
<feBlend mode="normal" in2="BackgroundImageFix" result="effect1_dropShadow_135_2724"/>
<feBlend mode="normal" in="SourceGraphic" in2="effect1_dropShadow_135_2724" result="shape"/>
</filter>
</defs>
</svg>
